<svg width="32" height="32" viewBox="0 0 32 32" fill="none" xmlns="http://www.w3.org/2000/svg">
<path d="M21.3333 10.6667V6.00087C21.3333 4.89189 21.3333 4.33739 21.0997 3.99663C20.8956 3.69891 20.5795 3.49666 20.2237 3.43611C19.8164 3.3668 19.3129 3.59916 18.306 4.06389L6.47869 9.52266C5.58067 9.93712 5.13167 10.1444 4.80281 10.4658C4.51208 10.7499 4.29016 11.0967 4.15401 11.4798C4 11.9131 4 12.4076 4 13.3966V20M22 19.3333H22.0133M4 14.9333L4 23.7333C4 25.2268 4 25.9735 4.29065 26.544C4.54631 27.0457 4.95426 27.4537 5.45603 27.7093C6.02646 28 6.77319 28 8.26667 28H23.7333C25.2268 28 25.9735 28 26.544 27.7094C27.0457 27.4537 27.4537 27.0457 27.7094 26.544C28 25.9735 28 25.2268 28 23.7333V14.9333C28 13.4399 28 12.6931 27.7094 12.1227C27.4537 11.6209 27.0457 11.213 26.544 10.9573C25.9735 10.6667 25.2268 10.6667 23.7333 10.6667L8.26667 10.6667C6.77319 10.6667 6.02646 10.6667 5.45603 10.9573C4.95426 11.213 4.54631 11.6209 4.29065 12.1227C4 12.6931 4 13.4399 4 14.9333ZM22.6667 19.3333C22.6667 19.7015 22.3682 20 22 20C21.6318 20 21.3333 19.7015 21.3333 19.3333C21.3333 18.9651 21.6318 18.6667 22 18.6667C22.3682 18.6667 22.6667 18.9651 22.6667 19.3333Z" stroke="white" stroke-width="2" stroke-linecap="round" stroke-linejoin="round"/>
</svg>
