<svg width="569" height="151" viewBox="0 0 569 151" fill="none" xmlns="http://www.w3.org/2000/svg">
<g clip-path="url(#clip0_7139_207)">
<mask id="path-1-inside-1_7139_207" fill="white">
<path d="M574.204 0C578.856 0 582 5.34811 582 10V45C582 56.0457 590.954 65 602 65H639C644.523 65 649 69.4771 649 75V131C649 142.046 640.046 151 629 151H20C8.95431 151 0 142.046 0 131V20C9.02019e-07 8.95431 8.95431 0 20 0H574.204Z"/>
</mask>
<path d="M582 45H581V45H582ZM602 65V66V66V65ZM649 131H650V131H649ZM0 20H-1V20H0ZM582 10H581V45H582H583V10H582ZM582 45H581C581 56.598 590.402 66 602 66V65V64C591.507 64 583 55.4934 583 45H582ZM602 65V66H639V65V64H602V65ZM649 75H648V131H649H650V75H649ZM649 131H648C648 141.493 639.493 150 629 150V151V152C640.598 152 650 142.598 650 131H649ZM629 151V150H20V151V152H629V151ZM20 151V150C9.50659 150 1 141.493 1 131H0H-1C-1 142.598 8.40202 152 20 152V151ZM0 131H1V20H0H-1V131H0ZM0 20H1C1 9.50659 9.50659 1 20 1V0V-1C8.40202 -1 -0.999999 8.40202 -1 20H0ZM20 0V1H574.204V0V-1H20V0ZM639 65V66C643.971 66 648 70.0294 648 75H649H650C650 68.9249 645.075 64 639 64V65ZM582 10H583C583 7.46843 582.15 4.76506 580.661 2.6751C579.169 0.5822 576.949 -1 574.204 -1V0V1C576.111 1 577.789 2.09185 579.032 3.83598C580.277 5.58305 581 7.87967 581 10H582Z" fill="white" mask="url(#path-1-inside-1_7139_207)"/>
</g>
<defs>
<clipPath id="clip0_7139_207">
<rect width="569" height="151" fill="white"/>
</clipPath>
</defs>
</svg>
