<svg width="649" height="151" viewBox="0 0 649 151" fill="none" xmlns="http://www.w3.org/2000/svg">
<mask id="path-1-inside-1_7023_87" fill="white">
<path fill-rule="evenodd" clip-rule="evenodd" d="M574.204 0C578.856 0 582 5.34811 582 10V45C582 56.0457 590.954 65 602 65H639C644.523 65 649 69.4772 649 75V131C649 142.046 640.046 151 629 151H20C8.95428 151 0 142.046 0 131V20C0 8.95431 8.95428 0 20 0H574.204Z"/>
</mask>
<path d="M582 45H583V10H582H581V45H582ZM602 65V64C591.507 64 583 55.4934 583 45H582H581C581 56.598 590.402 66 602 66V65ZM639 65V64H602V65V66H639V65ZM649 75H648V131H649H650V75H649ZM649 131H648C648 141.493 639.493 150 629 150V151V152C640.598 152 650 142.598 650 131H649ZM629 151V150H20V151V152H629V151ZM20 151V150C9.50657 150 1 141.493 1 131H0H-1C-1 142.598 8.402 152 20 152V151ZM0 131H1V20H0H-1V131H0ZM0 20H1C1 9.50659 9.50657 1 20 1V0V-1C8.402 -1 -1 8.40202 -1 20H0ZM20 0V1H574.204V0V-1H20V0ZM639 65V66C643.971 66 648 70.0294 648 75H649H650C650 68.9249 645.075 64 639 64V65ZM582 10H583C583 7.46843 582.15 4.76505 580.661 2.6751C579.169 0.5822 576.949 -1 574.204 -1V0V1C576.111 1 577.789 2.09186 579.032 3.83599C580.277 5.58306 581 7.87968 581 10H582Z" fill="white" mask="url(#path-1-inside-1_7023_87)"/>
</svg>
