<svg width="68" height="71" viewBox="0 0 68 71" fill="none" xmlns="http://www.w3.org/2000/svg">
<g clip-path="url(#clip0_7054_148)">
<path d="M346 94.989C346 94.9951 345.995 95 345.989 95C345.983 95 345.978 94.9953 345.978 94.9894C345.448 81.6509 334.469 71 321 71H62.5179C57.4543 71 53.295 67.1673 51.8111 62.3261C45.5414 41.8724 26.508 27 4 27H-1023C-1045.51 27 -1064.54 41.8724 -1070.81 62.3261C-1072.3 67.1673 -1076.45 71 -1081.52 71H-1549C-1562.47 71 -1573.45 81.6509 -1573.98 94.9894C-1573.98 94.9953 -1573.98 95 -1573.99 95C-1574 95 -1574 94.9951 -1574 94.989V10C-1574 4.47715 -1569.52 0 -1564 0H336C341.523 0 346 4.47715 346 10V94.989Z" fill="#7027E2"/>
</g>
<defs>
<clipPath id="clip0_7054_148">
<rect width="68" height="71" fill="white"/>
</clipPath>
</defs>
</svg>
